<svg xmlns="http://www.w3.org/2000/svg" width="18.66" height="18.73" viewBox="0 0 18.66 18.73"><defs><style>.a{fill:#fff;}.b{fill:#122659;}</style></defs><g transform="translate(0 0.07)"><rect class="a" width="14" height="15" transform="translate(3.93 -0.07)"/><path class="a" d="M110.9,14.621V.378A.376.376,0,0,0,110.521,0H96.278A.376.376,0,0,0,95.9.378V14.621a.376.376,0,0,0,.378.378h14.243A.376.376,0,0,0,110.9,14.621Zm-.756-.378H96.656V.756h13.487V14.243Z" transform="translate(-92.239 0)"/><path class="a" d="M.378,110.9H14.621a.378.378,0,0,0,0-.756H.756V96.278a.378.378,0,0,0-.756,0v14.243A.376.376,0,0,0,.378,110.9Z" transform="translate(0 -92.239)"/><path class="b" d="M202.278,109.733h2.7v2.7a.378.378,0,1,0,.756,0v-2.7h2.7a.378.378,0,1,0,0-.756h-2.7v-2.7a.378.378,0,1,0-.756,0v2.7h-2.7a.378.378,0,1,0,0,.756Z" transform="translate(-194.193 -101.857)"/></g></svg>